%TF.GenerationSoftware,KiCad,Pcbnew,10.0.3*%
%TF.CreationDate,2026-07-10T12:24:26-04:00*%
%TF.ProjectId,frostbyte-USB-Hub,66726f73-7462-4797-9465-2d5553422d48,rev?*%
%TF.SameCoordinates,Original*%
%TF.FileFunction,Copper,L2,Bot*%
%TF.FilePolarity,Positive*%
%FSLAX46Y46*%
G04 Gerber Fmt 4.6, Leading zero omitted, Abs format (unit mm)*
G04 Created by KiCad (PCBNEW 10.0.3) date 2026-07-10 12:24:26*
%MOMM*%
%LPD*%
G01*
G04 APERTURE LIST*
G04 Aperture macros list*
%AMRoundRect*
0 Rectangle with rounded corners*
0 $1 Rounding radius*
0 $2 $3 $4 $5 $6 $7 $8 $9 X,Y pos of 4 corners*
0 Add a 4 corners polygon primitive as box body*
4,1,4,$2,$3,$4,$5,$6,$7,$8,$9,$2,$3,0*
0 Add four circle primitives for the rounded corners*
1,1,$1+$1,$2,$3*
1,1,$1+$1,$4,$5*
1,1,$1+$1,$6,$7*
1,1,$1+$1,$8,$9*
0 Add four rect primitives between the rounded corners*
20,1,$1+$1,$2,$3,$4,$5,0*
20,1,$1+$1,$4,$5,$6,$7,0*
20,1,$1+$1,$6,$7,$8,$9,0*
20,1,$1+$1,$8,$9,$2,$3,0*%
G04 Aperture macros list end*
%TA.AperFunction,ComponentPad*%
%ADD10O,1.000000X2.100000*%
%TD*%
%TA.AperFunction,ComponentPad*%
%ADD11O,1.000000X1.600000*%
%TD*%
%TA.AperFunction,ComponentPad*%
%ADD12O,2.100000X1.000000*%
%TD*%
%TA.AperFunction,ComponentPad*%
%ADD13O,1.600000X1.000000*%
%TD*%
%TA.AperFunction,ComponentPad*%
%ADD14RoundRect,0.250000X0.550000X0.500000X-0.550000X0.500000X-0.550000X-0.500000X0.550000X-0.500000X0*%
%TD*%
%TA.AperFunction,ComponentPad*%
%ADD15C,1.600000*%
%TD*%
%TA.AperFunction,ComponentPad*%
%ADD16C,3.000000*%
%TD*%
%TA.AperFunction,ViaPad*%
%ADD17C,0.600000*%
%TD*%
%TA.AperFunction,Conductor*%
%ADD18C,0.200000*%
%TD*%
G04 APERTURE END LIST*
D10*
%TO.P,J1,SH,SHIELD_SH*%
%TO.N,/GND*%
X89680000Y-104370000D03*
D11*
X89680000Y-108550000D03*
D10*
X98320000Y-104370000D03*
D11*
X98320000Y-108550000D03*
%TD*%
D12*
%TO.P,J5,SH,SHIELD_SH*%
%TO.N,/GND*%
X57590000Y-89860000D03*
D13*
X53410000Y-89860000D03*
D12*
X57590000Y-98500000D03*
D13*
X53410000Y-98500000D03*
%TD*%
D10*
%TO.P,J2,SH,SHIELD_SH*%
%TO.N,/GND*%
X64180000Y-104370000D03*
D11*
X64180000Y-108550000D03*
D10*
X72820000Y-104370000D03*
D11*
X72820000Y-108550000D03*
%TD*%
D14*
%TO.P,J3,1,VBUS_1*%
%TO.N,/5V*%
X97430000Y-90500000D03*
D15*
%TO.P,J3,2,D-_2*%
%TO.N,/DP3*%
X94930000Y-90500000D03*
%TO.P,J3,3,D+_3*%
%TO.N,/DN3*%
X92930000Y-90500000D03*
%TO.P,J3,4,GND_4*%
%TO.N,/GND*%
X90430000Y-90500000D03*
D16*
%TO.P,J3,SH,Shield_SH*%
X100500000Y-87790000D03*
X87360000Y-87790000D03*
%TD*%
D14*
%TO.P,J4,1,VBUS_1*%
%TO.N,/5V*%
X71930000Y-90500000D03*
D15*
%TO.P,J4,2,D-_2*%
%TO.N,/DP4*%
X69430000Y-90500000D03*
%TO.P,J4,3,D+_3*%
%TO.N,/DN4*%
X67430000Y-90500000D03*
%TO.P,J4,4,GND_4*%
%TO.N,/GND*%
X64930000Y-90500000D03*
D16*
%TO.P,J4,SH,Shield_SH*%
X75000000Y-87790000D03*
X61860000Y-87790000D03*
%TD*%
D17*
%TO.N,/GND*%
X80365000Y-98975000D03*
%TO.N,Net-(U1-VDD18)*%
X82905000Y-98975000D03*
X89000000Y-96000000D03*
%TO.N,Net-(U1-VDD33)*%
X81635000Y-98975000D03*
X88000000Y-95000000D03*
%TO.N,/5V*%
X58505000Y-96630000D03*
X58505000Y-91730000D03*
%TO.N,/DP1*%
X73000000Y-97000000D03*
X76555000Y-94025000D03*
%TO.N,/DN1*%
X72434313Y-96434313D03*
X77825000Y-94025000D03*
%TO.N,/DP3*%
X84651765Y-92200000D03*
X81635000Y-94025000D03*
%TO.N,/DP4*%
X79095000Y-94025000D03*
X79000000Y-92000000D03*
%TD*%
%TO.N,/GND*%
D18*
X89680000Y-108550000D02*
X98320000Y-108550000D01*
X98320000Y-108550000D02*
X98320000Y-104370000D01*
X53410000Y-89860000D02*
X57590000Y-89860000D01*
X64570000Y-90500000D02*
X64930000Y-90500000D01*
X90070000Y-90500000D02*
X90430000Y-90500000D01*
X87360000Y-87790000D02*
X90070000Y-90500000D01*
X75000000Y-87790000D02*
X61860000Y-87790000D01*
X89680000Y-104370000D02*
X89680000Y-108550000D01*
X72820000Y-104370000D02*
X74970000Y-104370000D01*
X72820000Y-108550000D02*
X72820000Y-104370000D01*
X64180000Y-104370000D02*
X64180000Y-108550000D01*
X57590000Y-98500000D02*
X53410000Y-98500000D01*
X87360000Y-87790000D02*
X100500000Y-87790000D01*
X53410000Y-98500000D02*
X53410000Y-89860000D01*
X64180000Y-108550000D02*
X72820000Y-108550000D01*
X89680000Y-108550000D02*
X72820000Y-108550000D01*
X74970000Y-104370000D02*
X80365000Y-98975000D01*
X61860000Y-87790000D02*
X64570000Y-90500000D01*
%TO.N,Net-(U1-VDD18)*%
X89000000Y-96000000D02*
X86000000Y-96000000D01*
X86000000Y-96000000D02*
X83025000Y-98975000D01*
X83025000Y-98975000D02*
X82905000Y-98975000D01*
%TO.N,Net-(U1-VDD33)*%
X88000000Y-95000000D02*
X85610000Y-95000000D01*
X85610000Y-95000000D02*
X81635000Y-98975000D01*
%TO.N,/5V*%
X58505000Y-96630000D02*
X58505000Y-91730000D01*
%TO.N,/DP1*%
X75975000Y-94025000D02*
X76555000Y-94025000D01*
X73000000Y-97000000D02*
X75975000Y-94025000D01*
%TO.N,/DN1*%
X72434313Y-96434313D02*
X75443626Y-93425000D01*
X75443626Y-93425000D02*
X77225000Y-93425000D01*
X77225000Y-93425000D02*
X77825000Y-94025000D01*
%TO.N,/DP3*%
X84651765Y-92200000D02*
X83460000Y-92200000D01*
X83460000Y-92200000D02*
X81635000Y-94025000D01*
%TO.N,/DP4*%
X79000000Y-93930000D02*
X79095000Y-94025000D01*
X79000000Y-92000000D02*
X79000000Y-93930000D01*
%TD*%
M02*
