%TF.GenerationSoftware,KiCad,Pcbnew,10.0.3*%
%TF.CreationDate,2026-07-10T12:24:26-04:00*%
%TF.ProjectId,frostbyte-USB-Hub,66726f73-7462-4797-9465-2d5553422d48,rev?*%
%TF.SameCoordinates,Original*%
%TF.FileFunction,Soldermask,Top*%
%TF.FilePolarity,Negative*%
%FSLAX46Y46*%
G04 Gerber Fmt 4.6, Leading zero omitted, Abs format (unit mm)*
G04 Created by KiCad (PCBNEW 10.0.3) date 2026-07-10 12:24:26*
%MOMM*%
%LPD*%
G01*
G04 APERTURE LIST*
G04 Aperture macros list*
%AMRoundRect*
0 Rectangle with rounded corners*
0 $1 Rounding radius*
0 $2 $3 $4 $5 $6 $7 $8 $9 X,Y pos of 4 corners*
0 Add a 4 corners polygon primitive as box body*
4,1,4,$2,$3,$4,$5,$6,$7,$8,$9,$2,$3,0*
0 Add four circle primitives for the rounded corners*
1,1,$1+$1,$2,$3*
1,1,$1+$1,$4,$5*
1,1,$1+$1,$6,$7*
1,1,$1+$1,$8,$9*
0 Add four rect primitives between the rounded corners*
20,1,$1+$1,$2,$3,$4,$5,0*
20,1,$1+$1,$4,$5,$6,$7,0*
20,1,$1+$1,$6,$7,$8,$9,0*
20,1,$1+$1,$8,$9,$2,$3,0*%
G04 Aperture macros list end*
%ADD10RoundRect,0.250000X0.750000X0.950000X-0.750000X0.950000X-0.750000X-0.950000X0.750000X-0.950000X0*%
%ADD11RoundRect,0.200000X-0.200000X-0.275000X0.200000X-0.275000X0.200000X0.275000X-0.200000X0.275000X0*%
%ADD12RoundRect,0.225000X0.225000X0.250000X-0.225000X0.250000X-0.225000X-0.250000X0.225000X-0.250000X0*%
%ADD13RoundRect,0.225000X0.250000X-0.225000X0.250000X0.225000X-0.250000X0.225000X-0.250000X-0.225000X0*%
%ADD14C,0.650000*%
%ADD15RoundRect,0.150000X-0.150000X-0.575000X0.150000X-0.575000X0.150000X0.575000X-0.150000X0.575000X0*%
%ADD16RoundRect,0.075000X-0.075000X-0.650000X0.075000X-0.650000X0.075000X0.650000X-0.075000X0.650000X0*%
%ADD17O,1.000000X2.100000*%
%ADD18O,1.000000X1.600000*%
%ADD19C,2.200000*%
%ADD20RoundRect,0.250000X0.475000X-0.250000X0.475000X0.250000X-0.475000X0.250000X-0.475000X-0.250000X0*%
%ADD21RoundRect,0.200000X0.200000X0.275000X-0.200000X0.275000X-0.200000X-0.275000X0.200000X-0.275000X0*%
%ADD22RoundRect,0.150000X-0.575000X0.150000X-0.575000X-0.150000X0.575000X-0.150000X0.575000X0.150000X0*%
%ADD23RoundRect,0.075000X-0.650000X0.075000X-0.650000X-0.075000X0.650000X-0.075000X0.650000X0.075000X0*%
%ADD24O,2.100000X1.000000*%
%ADD25O,1.600000X1.000000*%
%ADD26RoundRect,0.250000X0.250000X0.475000X-0.250000X0.475000X-0.250000X-0.475000X0.250000X-0.475000X0*%
%ADD27RoundRect,0.250000X0.550000X0.500000X-0.550000X0.500000X-0.550000X-0.500000X0.550000X-0.500000X0*%
%ADD28C,1.600000*%
%ADD29C,3.000000*%
%ADD30RoundRect,0.250000X-0.475000X0.250000X-0.475000X-0.250000X0.475000X-0.250000X0.475000X0.250000X0*%
%ADD31RoundRect,0.225000X-0.225000X-0.250000X0.225000X-0.250000X0.225000X0.250000X-0.225000X0.250000X0*%
%ADD32RoundRect,0.250000X-0.250000X-0.475000X0.250000X-0.475000X0.250000X0.475000X-0.250000X0.475000X0*%
%ADD33RoundRect,0.225000X-0.250000X0.225000X-0.250000X-0.225000X0.250000X-0.225000X0.250000X0.225000X0*%
%ADD34RoundRect,0.150000X-0.150000X0.825000X-0.150000X-0.825000X0.150000X-0.825000X0.150000X0.825000X0*%
G04 APERTURE END LIST*
D10*
%TO.C,Y1*%
X86000000Y-102500000D03*
X82300000Y-102500000D03*
%TD*%
D11*
%TO.C,R10*%
X96850000Y-101500000D03*
X98500000Y-101500000D03*
%TD*%
D12*
%TO.C,C15*%
X83500000Y-87225000D03*
X81950000Y-87225000D03*
%TD*%
D13*
%TO.C,C13*%
X85500000Y-109500000D03*
X85500000Y-107950000D03*
%TD*%
D14*
%TO.C,J1*%
X91110000Y-104900000D03*
X96890000Y-104900000D03*
D15*
X90750000Y-103455000D03*
X91550000Y-103455000D03*
D16*
X92750000Y-103455000D03*
X93750000Y-103455000D03*
X94250000Y-103455000D03*
X95250000Y-103455000D03*
D15*
X96450000Y-103455000D03*
X97250000Y-103455000D03*
X97250000Y-103455000D03*
X96450000Y-103455000D03*
D16*
X95750000Y-103455000D03*
X94750000Y-103455000D03*
X93250000Y-103455000D03*
X92250000Y-103455000D03*
D15*
X91550000Y-103455000D03*
X90750000Y-103455000D03*
D17*
X89680000Y-104370000D03*
D18*
X89680000Y-108550000D03*
D17*
X98320000Y-104370000D03*
D18*
X98320000Y-108550000D03*
%TD*%
D13*
%TO.C,C17*%
X60500000Y-81000000D03*
X60500000Y-79450000D03*
%TD*%
D19*
%TO.C,H1*%
X81500000Y-82500000D03*
%TD*%
D20*
%TO.C,C12*%
X75000000Y-104900000D03*
X75000000Y-103000000D03*
%TD*%
D11*
%TO.C,R5*%
X57310000Y-87930000D03*
X58960000Y-87930000D03*
%TD*%
D21*
%TO.C,R9*%
X91000000Y-101500000D03*
X89350000Y-101500000D03*
%TD*%
D20*
%TO.C,C18*%
X58500000Y-81400000D03*
X58500000Y-79500000D03*
%TD*%
D14*
%TO.C,J5*%
X57060000Y-91290000D03*
X57060000Y-97070000D03*
D22*
X58505000Y-90930000D03*
X58505000Y-91730000D03*
D23*
X58505000Y-92930000D03*
X58505000Y-93930000D03*
X58505000Y-94430000D03*
X58505000Y-95430000D03*
D22*
X58505000Y-96630000D03*
X58505000Y-97430000D03*
X58505000Y-97430000D03*
X58505000Y-96630000D03*
D23*
X58505000Y-95930000D03*
X58505000Y-94930000D03*
X58505000Y-93430000D03*
X58505000Y-92430000D03*
D22*
X58505000Y-91730000D03*
X58505000Y-90930000D03*
D24*
X57590000Y-89860000D03*
D25*
X53410000Y-89860000D03*
D24*
X57590000Y-98500000D03*
D25*
X53410000Y-98500000D03*
%TD*%
D14*
%TO.C,J2*%
X65610000Y-104900000D03*
X71390000Y-104900000D03*
D15*
X65250000Y-103455000D03*
X66050000Y-103455000D03*
D16*
X67250000Y-103455000D03*
X68250000Y-103455000D03*
X68750000Y-103455000D03*
X69750000Y-103455000D03*
D15*
X70950000Y-103455000D03*
X71750000Y-103455000D03*
X71750000Y-103455000D03*
X70950000Y-103455000D03*
D16*
X70250000Y-103455000D03*
X69250000Y-103455000D03*
X67750000Y-103455000D03*
X66750000Y-103455000D03*
D15*
X66050000Y-103455000D03*
X65250000Y-103455000D03*
D17*
X64180000Y-104370000D03*
D18*
X64180000Y-108550000D03*
D17*
X72820000Y-104370000D03*
D18*
X72820000Y-108550000D03*
%TD*%
D26*
%TO.C,C16*%
X83500000Y-89500000D03*
X81600000Y-89500000D03*
%TD*%
D11*
%TO.C,R8*%
X71350000Y-101500000D03*
X73000000Y-101500000D03*
%TD*%
D21*
%TO.C,R7*%
X65650000Y-101500000D03*
X64000000Y-101500000D03*
%TD*%
%TO.C,R11*%
X81000000Y-109000000D03*
X79350000Y-109000000D03*
%TD*%
D27*
%TO.C,J3*%
X97430000Y-90500000D03*
D28*
X94930000Y-90500000D03*
X92930000Y-90500000D03*
X90430000Y-90500000D03*
D29*
X100500000Y-87790000D03*
X87360000Y-87790000D03*
%TD*%
D30*
%TO.C,C4*%
X97750000Y-94600000D03*
X97750000Y-96500000D03*
%TD*%
D19*
%TO.C,H2*%
X56500000Y-106500000D03*
%TD*%
D20*
%TO.C,C3*%
X100250000Y-99400000D03*
X100250000Y-97500000D03*
%TD*%
%TO.C,C14*%
X100500000Y-104900000D03*
X100500000Y-103000000D03*
%TD*%
D30*
%TO.C,C5*%
X75000000Y-106600000D03*
X75000000Y-108500000D03*
%TD*%
D11*
%TO.C,R6*%
X57310000Y-85930000D03*
X58960000Y-85930000D03*
%TD*%
D31*
%TO.C,C10*%
X57410000Y-100430000D03*
X58960000Y-100430000D03*
%TD*%
D32*
%TO.C,C9*%
X57060000Y-102430000D03*
X58960000Y-102430000D03*
%TD*%
D13*
%TO.C,C11*%
X62000000Y-104550000D03*
X62000000Y-103000000D03*
%TD*%
%TO.C,C1*%
X97750000Y-99500000D03*
X97750000Y-97950000D03*
%TD*%
D33*
%TO.C,C2*%
X100250000Y-94000000D03*
X100250000Y-95550000D03*
%TD*%
D27*
%TO.C,J4*%
X71930000Y-90500000D03*
D28*
X69430000Y-90500000D03*
X67430000Y-90500000D03*
X64930000Y-90500000D03*
D29*
X75000000Y-87790000D03*
X61860000Y-87790000D03*
%TD*%
D34*
%TO.C,U1*%
X85445000Y-94025000D03*
X84175000Y-94025000D03*
X82905000Y-94025000D03*
X81635000Y-94025000D03*
X80365000Y-94025000D03*
X79095000Y-94025000D03*
X77825000Y-94025000D03*
X76555000Y-94025000D03*
X76555000Y-98975000D03*
X77825000Y-98975000D03*
X79095000Y-98975000D03*
X80365000Y-98975000D03*
X81635000Y-98975000D03*
X82905000Y-98975000D03*
X84175000Y-98975000D03*
X85445000Y-98975000D03*
%TD*%
M02*
