M48
; DRILL file KiCad 10.0.3 date 2026-07-10T12:24:42
; FORMAT={-:-/ absolute / metric / decimal}
; #@! TF.CreationDate,2026-07-10T12:24:42-04:00
; #@! TF.GenerationSoftware,Kicad,Pcbnew,10.0.3
; #@! TF.FileFunction,Plated,1,2,PTH
FMAT,2
METRIC
; #@! TA.AperFunction,Plated,PTH,ViaDrill
T1C0.300
; #@! TA.AperFunction,Plated,PTH,ComponentDrill
T2C0.600
; #@! TA.AperFunction,Plated,PTH,ComponentDrill
T3C0.950
; #@! TA.AperFunction,Plated,PTH,ComponentDrill
T4C2.300
%
G90
G05
T1
X58.505Y-91.73
X58.505Y-96.63
X72.434Y-96.434
X73.0Y-97.0
X76.555Y-94.025
X77.825Y-94.025
X79.0Y-92.0
X79.095Y-94.025
X80.365Y-98.975
X81.635Y-94.025
X81.635Y-98.975
X82.905Y-98.975
X84.652Y-92.2
X88.0Y-95.0
X89.0Y-96.0
T3
X64.93Y-90.5
X67.43Y-90.5
X69.43Y-90.5
X71.93Y-90.5
X90.43Y-90.5
X92.93Y-90.5
X94.93Y-90.5
X97.43Y-90.5
T4
X61.86Y-87.79
X75.0Y-87.79
X87.36Y-87.79
X100.5Y-87.79
T2
G00X53.71Y-89.86
M15
G01X53.11Y-89.86
M16
G05
G00X53.71Y-98.5
M15
G01X53.11Y-98.5
M16
G05
G00X58.14Y-89.86
M15
G01X57.04Y-89.86
M16
G05
G00X58.14Y-98.5
M15
G01X57.04Y-98.5
M16
G05
G00X64.18Y-103.82
M15
G01X64.18Y-104.92
M16
G05
G00X64.18Y-108.25
M15
G01X64.18Y-108.85
M16
G05
G00X72.82Y-103.82
M15
G01X72.82Y-104.92
M16
G05
G00X72.82Y-108.25
M15
G01X72.82Y-108.85
M16
G05
G00X89.68Y-103.82
M15
G01X89.68Y-104.92
M16
G05
G00X89.68Y-108.25
M15
G01X89.68Y-108.85
M16
G05
G00X98.32Y-103.82
M15
G01X98.32Y-104.92
M16
G05
G00X98.32Y-108.25
M15
G01X98.32Y-108.85
M16
G05
M30
